# xmcd CD database file
#
# Track frame offsets:
#	150
#	19360
#	31753
#	53317
#	69919
#	85187
#	103355
#	125713
#	138688
#	154652
#	165937
#	189338
#	204742
#	225292
#	241987
#	257996
#	280657
#	299173
#
# Disc length: 4216 seconds
#
# Revision: 0
# Processed by: cddbd v1.5.2PL0 Copyright (c) Steve Scherf et al.
# Submitted via: CDex 1.51
#
DISCID=fb107612
DTITLE=Karl Hodina and Gerd Bienert - Jazz zu zweit - It Could Happen To You
DYEAR=1986
DGENRE=Jazz
TTITLE0=Misty (Errol Garner)
TTITLE1=Here's That Rainy Day
TTITLE2=Quiet Blues
TTITLE3=I'll Remember April
TTITLE4=I Got It Bad (Duke Ellington)
TTITLE5=Our Funky Blues
TTITLE6=My Old Flame
TTITLE7=Little Walz
TTITLE8=When Sunny Gets Blue
TTITLE9=Finish
TTITLE10=Try A Little Tenderness
TTITLE11=The Preacher
TTITLE12=It Could Happen To You
TTITLE13=Bacca Meets Calou
TTITLE14=Mahè
TTITLE15=Takamaka
TTITLE16=Prince Albert
TTITLE17=Blues For Bauxie
EXTD=YEAR: 1986
EXTT0=
EXTT1=
EXTT2=
EXTT3=
EXTT4=
EXTT5=
EXTT6=
EXTT7=
EXTT8=
EXTT9=
EXTT10=
EXTT11=
EXTT12=
EXTT13=
EXTT14=
EXTT15=
EXTT16=
EXTT17=
PLAYORDER=
